/* XPM */
static char *result[] = {
/* columns rows colors chars-per-pixel */
"16 16 90 1 ",
"  c #1F1523",
". c #1F1524",
"X c #201525",
"o c #251B27",
"O c #251C25",
"+ c #251C26",
"@ c #261B28",
"# c #261B29",
"$ c #261B2A",
"% c #261B2B",
"& c #271B2D",
"* c #2C222C",
"= c #2C222D",
"- c #2C222E",
"; c #2C222F",
": c #2D2234",
"> c #322932",
", c #34283B",
"< c #34283C",
"1 c #34283D",
"2 c #382E38",
"3 c #392F39",
"4 c #382E3A",
"5 c #392F3A",
"6 c #392F3B",
"7 c #392F3D",
"8 c #3A2F3F",
"9 c #39303B",
"0 c #3B333B",
"q c #3A303C",
"w c #3A303D",
"e c #3B323C",
"r c #3B323D",
"t c #3D333F",
"y c #3D343D",
"u c #3F363F",
"i c #3A2F40",
"p c #3A2F42",
"a c #3B2E46",
"s c #3E3540",
"d c #3F3640",
"f c #403641",
"g c #403542",
"h c #403544",
"j c #403546",
"k c #413547",
"l c #403840",
"z c #463C46",
"x c #463C47",
"c c #413549",
"v c #41354B",
"b c #42354D",
"n c #463C49",
"m c #473C4B",
"M c #473C4C",
"N c #473C4E",
"B c #483B50",
"V c #483B52",
"C c #483B53",
"Z c #4C434C",
"A c #4C434D",
"S c #4D434E",
"D c #4D4250",
"F c #4D4252",
"G c #4D4253",
"H c #4E4254",
"J c #4E4258",
"K c #534953",
"L c #534955",
"P c #534956",
"I c #544958",
"U c #544959",
"Y c #54495A",
"T c #54495B",
"R c #55495D",
"E c #5A4F5E",
"W c #5A4F5F",
"Q c #595059",
"! c #5A505D",
"~ c #5B4F60",
"^ c #5B4F61",
"/ c #AAB2C4",
"( c #AEB6C8",
") c #B2BACC",
"_ c #B7BFD1",
"` c #BBC3D5",
"' c #C1C8DA",
"] c #C7CFE0",
"[ c #CAD2E4",
"{ c None",
/* pixels */
"{OOOOOO****OOOO{",
"Ou33uuzzzzzuuzZO",
"O>uzzZZZZZKKQZuO",
"O>zuuuu223>>zQ3O",
"O3Zzzuy[[233>K3O",
"OuZzzl]]]033>KuO",
"+dAAxff''ed55Ad=",
"+gLSSns``sgg6Sg-",
"ohPDDDt__9mh7Dh;",
"@j!IFMs))rjj8Mj@",
"#kEUGGw((wNkkNi#",
"$pWYYHq//4BBccp$",
" ,~~TTq666VVvv,$",
".<J^^^RRRJJJbC:%",
".a111aaaaaa111a.",
"{XXX&&&&&&&&XXX{"
};
