/* XPM */
static char *result[] = {
/* columns rows colors chars-per-pixel */
"16 16 90 1 ",
"  c #1F1523",
". c #1F1524",
"X c #201525",
"o c #251B27",
"O c #251C25",
"+ c #251C26",
"@ c #261B28",
"# c #261B29",
"$ c #261B2A",
"% c #261B2B",
"& c #271B2D",
"* c #2C222C",
"= c #2C222D",
"- c #2C222E",
"; c #2C222F",
": c #2D2234",
"> c #322932",
", c #362D36",
"< c #34283B",
"1 c #372D38",
"2 c #372D3A",
"3 c #34283C",
"4 c #34283D",
"5 c #382E38",
"6 c #392F39",
"7 c #382E3A",
"8 c #392F3A",
"9 c #392F3B",
"0 c #392F3D",
"q c #3A2F3F",
"w c #39303B",
"e c #3B333B",
"r c #3A303C",
"t c #3B313C",
"y c #3A303D",
"u c #3B323C",
"i c #3B323D",
"p c #3C323E",
"a c #3C323F",
"s c #3D333F",
"d c #3D343D",
"f c #3E343E",
"g c #3F363F",
"h c #3A2F40",
"j c #3A2F42",
"k c #3B2E46",
"l c #3E3540",
"z c #3F3640",
"x c #403641",
"c c #403542",
"v c #403544",
"b c #403546",
"n c #413547",
"m c #403840",
"M c #463C46",
"N c #413549",
"B c #41354B",
"V c #42354D",
"C c #463C49",
"Z c #473C4C",
"A c #473C4E",
"S c #483B53",
"D c #4C434C",
"F c #4C434D",
"G c #4D434E",
"H c #4D4250",
"J c #4D4252",
"K c #4E4258",
"L c #534953",
"P c #534955",
"I c #534956",
"U c #544958",
"Y c #544959",
"T c #54495A",
"R c #55495D",
"E c #5A4F5E",
"W c #5A4F5F",
"Q c #595059",
"! c #5A505D",
"~ c #5B4F60",
"^ c #5B4F61",
"/ c #AAB2C4",
"( c #AEB6C8",
") c #B2BACC",
"_ c #B7BFD1",
"` c #BBC3D5",
"' c #C1C8DA",
"] c #C7CFE0",
"[ c #CAD2E4",
"{ c None",
/* pixels */
"{OOOOOO****OOOO{",
"Og66ggMMMMMggMDO",
"O>gMMDDDDDLLQDgO",
"O>Mgggf555>>MQ6O",
"O6DMMd[[[[56>L6O",
"OgDMm]]me]],>LgO",
"+zFFxxxux''18Fz=",
"+cPGGCCl``tt9Gc-",
"ovIHHHs__wsv0Hv;",
"@b!UJi))iibbqZb@",
"#nEYa((ayyynnAh#",
"$jWTp//////7NNj$",
" <~~rrr99922BB<$",
".3K^^^RRRKKKVS:%",
".k444kkkkkk444k.",
"{XXX&&&&&&&&XXX{"
};
