/* XPM */
static char *result[] = {
/* columns rows colors chars-per-pixel */
"16 16 92 1 ",
"  c #1F1523",
". c #1F1524",
"X c #201525",
"o c #251B27",
"O c #251C25",
"+ c #251C26",
"@ c #261B28",
"# c #261B29",
"$ c #261B2A",
"% c #261B2B",
"& c #271B2D",
"* c #2C222C",
"= c #2C222D",
"- c #2C222E",
"; c #2C222F",
": c #2D2234",
"> c #322932",
", c #362D36",
"< c #34283B",
"1 c #372D38",
"2 c #372D3A",
"3 c #34283C",
"4 c #34283D",
"5 c #382E38",
"6 c #392F39",
"7 c #382D3A",
"8 c #382E3A",
"9 c #392F3A",
"0 c #392F3B",
"q c #392F3D",
"w c #3A2F3F",
"e c #3B333B",
"r c #3A303C",
"t c #3B313C",
"y c #3A303D",
"u c #3B323C",
"i c #3B323D",
"p c #3C323E",
"a c #3C323F",
"s c #3D333F",
"d c #3D343D",
"f c #3E343E",
"g c #3F363F",
"h c #3A2F40",
"j c #3A2F42",
"k c #3B2E46",
"l c #3E3540",
"z c #3F3640",
"x c #403641",
"c c #403542",
"v c #403544",
"b c #403546",
"n c #413547",
"m c #403840",
"M c #463C46",
"N c #413549",
"B c #41354B",
"V c #42354D",
"C c #463C49",
"Z c #473C4C",
"A c #473C4E",
"S c #483B52",
"D c #483B53",
"F c #4C434C",
"G c #4C434D",
"H c #4D434E",
"J c #4D4250",
"K c #4D4252",
"L c #4E4258",
"P c #534953",
"I c #534955",
"U c #534956",
"Y c #544958",
"T c #544959",
"R c #54495A",
"E c #54495B",
"W c #55495D",
"Q c #5A4F5E",
"! c #5A4F5F",
"~ c #595059",
"^ c #5A505D",
"/ c #5B4F60",
"( c #5B4F61",
") c #AAB2C4",
"_ c #AEB6C8",
"` c #B2BACC",
"' c #B7BFD1",
"] c #BBC3D5",
"[ c #C1C8DA",
"{ c #C7CFE0",
"} c #CAD2E4",
"| c None",
/* pixels */
"|OOOOOO****OOOO|",
"Og66ggMMMMMggMFO",
"O>gMMFFFFFPP~FgO",
"O>Mgggf555>>M~6O",
"O6FMMd}}}}56>P6O",
"OgFMm{{me{{,>PgO",
"+zGGxxxu[[u19Gz=",
"+cIHHCl]]ltc0Hc-",
"ovUJJJss''svqJv;",
"@b^YKilii``8wZb@",
"#nQTa__ay__7nAh#",
"$j!Rpr))))88NNj$",
" <//Err0002SBB<$",
".3L(((WWWLLLVD:%",
".k444kkkkkk444k.",
"|XXX&&&&&&&&XXX|"
};
