/* XPM */
static char *result[] = {
/* columns rows colors chars-per-pixel */
"16 16 90 1 ",
"  c #1F1523",
". c #1F1524",
"X c #201525",
"o c #251B27",
"O c #251C25",
"+ c #251C26",
"@ c #261B28",
"# c #261B29",
"$ c #261B2A",
"% c #261B2B",
"& c #271B2D",
"* c #2C222C",
"= c #2C222D",
"- c #2C222E",
"; c #2C222F",
": c #2D2234",
"> c #322932",
", c #362D36",
"< c #34283B",
"1 c #372D3A",
"2 c #34283C",
"3 c #34283D",
"4 c #382E38",
"5 c #392F39",
"6 c #382D3A",
"7 c #382E3A",
"8 c #392F3A",
"9 c #392F3B",
"0 c #392F3D",
"q c #3A2F3F",
"w c #3B333B",
"e c #3A303C",
"r c #3B313C",
"t c #3A303D",
"y c #3B323C",
"u c #3C323F",
"i c #3D333F",
"p c #3D343D",
"a c #3F363F",
"s c #3A2F40",
"d c #3A2F42",
"f c #3B2E46",
"g c #3E3540",
"h c #3F3640",
"j c #403641",
"k c #403542",
"l c #403742",
"z c #403544",
"x c #403546",
"c c #413547",
"v c #433A44",
"b c #463C46",
"n c #463C47",
"m c #413549",
"M c #41354B",
"N c #42354D",
"B c #473C4C",
"V c #473C4E",
"C c #483B50",
"Z c #483B52",
"A c #483B53",
"S c #4C434C",
"D c #4C434D",
"F c #4D434E",
"G c #4D4250",
"H c #4E4254",
"J c #4E4258",
"K c #534953",
"L c #534955",
"P c #534956",
"I c #544958",
"U c #544959",
"Y c #54495A",
"T c #54495B",
"R c #55495D",
"E c #5A4F5E",
"W c #5A4F5F",
"Q c #595059",
"! c #5A505D",
"~ c #5B4F60",
"^ c #5B4F61",
"/ c #AAB2C4",
"( c #AEB6C8",
") c #B2BACC",
"_ c #B7BFD1",
"` c #BBC3D5",
"' c #C1C8DA",
"] c #C7CFE0",
"[ c #CAD2E4",
"{ c None",
/* pixels */
"{OOOOOO****OOOO{",
"Oa55aabbbbbaabSO",
"O>abbSSSSSKKQSaO",
"O>baaaa544>>bQ5O",
"O5Sbbaap[[45>K5O",
"OaSbbbw]]],5>KaO",
"+hDDnj''''y88Dh=",
"+kLFv``g``rk9Fk-",
"ozPGl__i__iz0Gz;",
"@x!Ig))))))7qBx@",
"#cEUuutu((t6cVs#",
"$dWYYHHe//7Cmmd$",
" <~~TTT9991ZMM<$",
".2J^^^RRRJJJNA:%",
".f333ffffff333f.",
"{XXX&&&&&&&&XXX{"
};
