/* XPM */
static char *result[] = {
/* columns rows colors chars-per-pixel */
"16 16 93 2 ",
"   c #1F1523",
".  c #1F1524",
"X  c #201525",
"o  c #251B27",
"O  c #251C25",
"+  c #251C26",
"@  c #261B28",
"#  c #261B29",
"$  c #261B2A",
"%  c #261B2B",
"&  c #271B2D",
"*  c #2C222C",
"=  c #2C222D",
"-  c #2C222E",
";  c #2C222F",
":  c #2D2234",
">  c #322932",
",  c #362D36",
"<  c #34283B",
"1  c #372D3A",
"2  c #34283C",
"3  c #34283D",
"4  c #382E38",
"5  c #392F39",
"6  c #382D3A",
"7  c #382E3A",
"8  c #392F3A",
"9  c #392F3B",
"0  c #392F3D",
"q  c #3A2F3F",
"w  c #39303B",
"e  c #3B333B",
"r  c #3A303C",
"t  c #3B313C",
"y  c #3A303D",
"u  c #3B323C",
"i  c #3B323D",
"p  c #3C323E",
"a  c #3C323F",
"s  c #3D333F",
"d  c #3E343E",
"f  c #3F363F",
"g  c #3A2F40",
"h  c #3A2F42",
"j  c #3B2E46",
"k  c #3E3540",
"l  c #3F3640",
"z  c #403641",
"x  c #403542",
"c  c #403742",
"v  c #403544",
"b  c #403546",
"n  c #413547",
"m  c #403840",
"M  c #433943",
"N  c #433A44",
"B  c #463C46",
"V  c #413549",
"C  c #41354B",
"Z  c #42354D",
"A  c #473C4C",
"S  c #473C4E",
"D  c #483B52",
"F  c #483B53",
"G  c #4C434C",
"H  c #4C434D",
"J  c #4D434E",
"K  c #4D4250",
"L  c #4D4252",
"P  c #4E4258",
"I  c #534953",
"U  c #534955",
"Y  c #534956",
"T  c #544958",
"R  c #544959",
"E  c #54495A",
"W  c #54495B",
"Q  c #55495D",
"!  c #5A4F5E",
"~  c #5A4F5F",
"^  c #595059",
"/  c #5A505D",
"(  c #5B4F60",
")  c #5B4F61",
"_  c #AAB2C4",
"`  c #AEB6C8",
"'  c #B2BACC",
"]  c #B7BFD1",
"[  c #BBC3D5",
"{  c #C1C8DA",
"}  c #C7CFE0",
"|  c #CAD2E4",
" . c None",
/* pixels */
" .O O O O O O * * * * O O O O  .",
"O f 5 5 f f B B B B B f f B G O ",
"O > f B B G G G G G I I ^ G f O ",
"O > B f f d d 4 4 4 > > B ^ 5 O ",
"O 5 G B M | | | | | 4 5 > I 5 O ",
"O f G B m } } m e e , 5 > I f O ",
"+ l H H z { { u z u l 8 8 H l = ",
"+ x U J N [ [ [ [ [ t x 9 J x - ",
"o v Y K c c s s s ] ] w 0 K v ; ",
"@ b / T L i k A i ' ' 7 q A b @ ",
"# n ! R a ` ` a y ` ` 6 n S g # ",
"$ h ~ E p r _ _ _ _ 7 7 V V h $ ",
"  < ( ( W r r 9 9 9 1 D C C < $ ",
". 2 P ) ) ) Q Q Q P P P Z F : % ",
". j 3 3 3 j j j j j j 3 3 3 j . ",
" .X X X & & & & & & & & X X X  ."
};
