/* XPM */
static char *result[] = {
/* columns rows colors chars-per-pixel */
"16 16 92 1 ",
"  c #1F1523",
". c #1F1524",
"X c #201525",
"o c #251B27",
"O c #251C25",
"+ c #251C26",
"@ c #261B28",
"# c #261B29",
"$ c #261B2A",
"% c #261B2B",
"& c #271B2D",
"* c #2C222C",
"= c #2C222D",
"- c #2C222E",
"; c #2C222F",
": c #2D2234",
"> c #322932",
", c #362D36",
"< c #34283B",
"1 c #372D3A",
"2 c #34283C",
"3 c #34283D",
"4 c #382E38",
"5 c #392F39",
"6 c #382D3A",
"7 c #382E3A",
"8 c #392F3A",
"9 c #392F3B",
"0 c #392F3D",
"q c #3A2F3F",
"w c #39303B",
"e c #3B333B",
"r c #3A303C",
"t c #3B313C",
"y c #3A303D",
"u c #3B323C",
"i c #3B323D",
"p c #3C323E",
"a c #3C323F",
"s c #3D333F",
"d c #3D343D",
"f c #3E343E",
"g c #3F363F",
"h c #3A2F40",
"j c #3A2F42",
"k c #3B2E46",
"l c #3E3540",
"z c #3F3640",
"x c #403641",
"c c #403542",
"v c #403742",
"b c #403544",
"n c #403546",
"m c #413547",
"M c #403840",
"N c #433A44",
"B c #463C46",
"V c #413549",
"C c #41354B",
"Z c #42354D",
"A c #473C4C",
"S c #473C4E",
"D c #483B52",
"F c #483B53",
"G c #4C434C",
"H c #4C434D",
"J c #4D434E",
"K c #4D4250",
"L c #4E4258",
"P c #534953",
"I c #534955",
"U c #534956",
"Y c #544958",
"T c #544959",
"R c #54495A",
"E c #54495B",
"W c #55495D",
"Q c #5A4F5E",
"! c #5A4F5F",
"~ c #595059",
"^ c #5A505D",
"/ c #5B4F60",
"( c #5B4F61",
") c #AAB2C4",
"_ c #AEB6C8",
"` c #B2BACC",
"' c #B7BFD1",
"] c #BBC3D5",
"[ c #C1C8DA",
"{ c #C7CFE0",
"} c #CAD2E4",
"| c None",
/* pixels */
"|OOOOOO****OOOO|",
"Og55ggBBBBBggBGO",
"O>gBBGGGGGPP~GgO",
"O>Bgggf444>>B~5O",
"O5GBBd}}}}45>P5O",
"OgGBM{{Mee,5>PgO",
"+zHHx[[uxuz88Hz=",
"+cIJN]]]]]tc9Jc-",
"obUKv''ss''w0Kb;",
"@n^Yl``ii``7qAn@",
"#mQTa__ay__6mSh#",
"$j!Rpr))))77VVj$",
" <//Err9991DCC<$",
".2L(((WWWLLLZF:%",
".k333kkkkkk333k.",
"|XXX&&&&&&&&XXX|"
};
