/* XPM */
static char *result[] = {
/* columns rows colors chars-per-pixel */
"16 16 93 2 ",
"   c #1F1523",
".  c #1F1524",
"X  c #201525",
"o  c #251B27",
"O  c #251C25",
"+  c #251C26",
"@  c #261B28",
"#  c #261B29",
"$  c #261B2A",
"%  c #261B2B",
"&  c #271B2D",
"*  c #2C222C",
"=  c #2C222D",
"-  c #2C222E",
";  c #2C222F",
":  c #2D2234",
">  c #322832",
",  c #322932",
"<  c #362D36",
"1  c #34283B",
"2  c #372D38",
"3  c #34283C",
"4  c #34283D",
"5  c #382E38",
"6  c #392F39",
"7  c #382E3A",
"8  c #392F3A",
"9  c #392F3B",
"0  c #392F3D",
"q  c #3A2F3F",
"w  c #39303B",
"e  c #3B333B",
"r  c #3A303C",
"t  c #3B313C",
"y  c #3A303D",
"u  c #3B323D",
"i  c #3D333F",
"p  c #3E343E",
"a  c #3F363F",
"s  c #3A2F40",
"d  c #3A2F42",
"f  c #3B2E46",
"g  c #3E3540",
"h  c #3F3640",
"j  c #403641",
"k  c #403542",
"l  c #403544",
"z  c #403546",
"x  c #413547",
"c  c #403840",
"v  c #433943",
"b  c #463C46",
"n  c #463C47",
"m  c #413549",
"M  c #41354B",
"N  c #42354D",
"B  c #463C49",
"V  c #473C4C",
"C  c #473C4E",
"Z  c #483B50",
"A  c #483B52",
"S  c #483B53",
"D  c #4C434C",
"F  c #4C434D",
"G  c #4D434E",
"H  c #4D4250",
"J  c #4D4252",
"K  c #4D4253",
"L  c #4E4254",
"P  c #4E4258",
"I  c #534953",
"U  c #534955",
"Y  c #534956",
"T  c #544958",
"R  c #544959",
"E  c #54495A",
"W  c #54495B",
"Q  c #55495D",
"!  c #5A4F5E",
"~  c #5A4F5F",
"^  c #595059",
"/  c #5A505D",
"(  c #5B4F60",
")  c #5B4F61",
"_  c #AAB2C4",
"`  c #AEB6C8",
"'  c #B2BACC",
"]  c #B7BFD1",
"[  c #BBC3D5",
"{  c #C1C8DA",
"}  c #C7CFE0",
"|  c #CAD2E4",
" . c None",
/* pixels */
" .O O O O O O * * * * O O O O  .",
"O a 6 6 a a b b b b b a a b D O ",
"O , a b b D D D D D I I ^ D a O ",
"O , b a a p p 5 5 5 > , b ^ 6 O ",
"O 6 D b v | | | | | | 5 , I 6 O ",
"O a D b c c e c e } } < , I a O ",
"+ h F F n n n h j { { 2 8 F h = ",
"+ k U G G B B g [ [ t t 9 G k - ",
"o l Y H H H i ] ] w i l 0 H l ; ",
"@ z / T J V g ' ' u z z q V z @ ",
"# x ! R K K y ` ` y C x x C s # ",
"$ d ~ E E L r _ _ 7 Z Z m m d $ ",
"  1 ( ( W W r 9 9 9 A A M M 1 $ ",
". 3 P ) ) ) Q Q Q P P P N S : % ",
". f 4 4 4 f f f f f f 4 4 4 f . ",
" .X X X & & & & & & & & X X X  ."
};
