/* XPM */
static char *result[] = {
/* columns rows colors chars-per-pixel */
"16 16 93 2 ",
"   c #1F1523",
".  c #1F1524",
"X  c #201525",
"o  c #251B27",
"O  c #251C25",
"+  c #251C26",
"@  c #261B28",
"#  c #261B29",
"$  c #261B2A",
"%  c #261B2B",
"&  c #271B2D",
"*  c #2C222C",
"=  c #2C222D",
"-  c #2C222E",
";  c #2C222F",
":  c #2D2234",
">  c #322932",
",  c #362D36",
"<  c #34283B",
"1  c #372D38",
"2  c #372D3A",
"3  c #34283C",
"4  c #34283D",
"5  c #382E38",
"6  c #392F39",
"7  c #382D3A",
"8  c #382E3A",
"9  c #392F3A",
"0  c #392F3B",
"q  c #392F3D",
"w  c #3A2F3F",
"e  c #39303B",
"r  c #3B333B",
"t  c #3A303C",
"y  c #3B313C",
"u  c #3A303D",
"i  c #3B323C",
"p  c #3B323D",
"a  c #3C323E",
"s  c #3C323F",
"d  c #3D333F",
"f  c #3D343D",
"g  c #3E343E",
"h  c #3F363F",
"j  c #3A2F40",
"k  c #3A2F42",
"l  c #3B2E46",
"z  c #3E3540",
"x  c #3F3640",
"c  c #403641",
"v  c #403542",
"b  c #403742",
"n  c #403544",
"m  c #403546",
"M  c #413547",
"N  c #403840",
"B  c #433A44",
"V  c #463C46",
"C  c #413549",
"Z  c #41354B",
"A  c #42354D",
"S  c #473C4C",
"D  c #473C4E",
"F  c #483B52",
"G  c #483B53",
"H  c #4C434C",
"J  c #4C434D",
"K  c #4D434E",
"L  c #4D4250",
"P  c #4E4258",
"I  c #534953",
"U  c #534955",
"Y  c #534956",
"T  c #544958",
"R  c #544959",
"E  c #54495A",
"W  c #54495B",
"Q  c #55495D",
"!  c #5A4F5E",
"~  c #5A4F5F",
"^  c #595059",
"/  c #5A505D",
"(  c #5B4F60",
")  c #5B4F61",
"_  c #AAB2C4",
"`  c #AEB6C8",
"'  c #B2BACC",
"]  c #B7BFD1",
"[  c #BBC3D5",
"{  c #C1C8DA",
"}  c #C7CFE0",
"|  c #CAD2E4",
" . c None",
/* pixels */
" .O O O O O O * * * * O O O O  .",
"O h 6 6 h h V V V V V h h V H O ",
"O > h V V H H H H H I I ^ H h O ",
"O > V h h h g 5 5 5 > > V ^ 6 O ",
"O 6 H V V f | | | | 5 6 > I 6 O ",
"O h H V N } } N r } } , > I h O ",
"+ x J J c { { i c { { 1 9 J x = ",
"+ v U K B z [ [ [ [ y y 0 K v - ",
"o n Y L b ] ] d d ] ] e q L n ; ",
"@ m / T z ' ' p p ' ' 8 w S m @ ",
"# M ! R s ` ` s u ` ` 7 M D j # ",
"$ k ~ E a t _ _ _ _ 8 8 C C k $ ",
"  < ( ( W t t 0 0 0 2 F Z Z < $ ",
". 3 P ) ) ) Q Q Q P P P A G : % ",
". l 4 4 4 l l l l l l 4 4 4 l . ",
" .X X X & & & & & & & & X X X  ."
};
