/* XPM */
static char *result[] = {
/* columns rows colors chars-per-pixel */
"16 16 94 2 ",
"   c #1F1523",
".  c #1F1524",
"X  c #201525",
"o  c #251B27",
"O  c #251C25",
"+  c #251C26",
"@  c #261B28",
"#  c #261B29",
"$  c #261B2A",
"%  c #261B2B",
"&  c #271B2D",
"*  c #2C222C",
"=  c #2C222D",
"-  c #2C222E",
";  c #2C222F",
":  c #2D2234",
">  c #322932",
",  c #362D36",
"<  c #34283B",
"1  c #372D38",
"2  c #372D3A",
"3  c #34283C",
"4  c #34283D",
"5  c #382E38",
"6  c #392F39",
"7  c #382D3A",
"8  c #382E3A",
"9  c #392F3A",
"0  c #392F3B",
"q  c #392F3D",
"w  c #3A2F3F",
"e  c #39303B",
"r  c #3B333B",
"t  c #3A303C",
"y  c #3B313C",
"u  c #3A303D",
"i  c #3B323C",
"p  c #3B323D",
"a  c #3C323F",
"s  c #3D333F",
"d  c #3D343D",
"f  c #3E343E",
"g  c #3F363F",
"h  c #3A2F40",
"j  c #3A2F42",
"k  c #3B2E46",
"l  c #3E3540",
"z  c #3F3640",
"x  c #403641",
"c  c #403542",
"v  c #403742",
"b  c #403544",
"n  c #403546",
"m  c #413547",
"M  c #403840",
"N  c #433A44",
"B  c #463C46",
"V  c #413549",
"C  c #41354B",
"Z  c #42354D",
"A  c #473C4C",
"S  c #473C4E",
"D  c #483B52",
"F  c #483B53",
"G  c #4C434C",
"H  c #4C434D",
"J  c #4D434E",
"K  c #4D4250",
"L  c #4D4252",
"P  c #4D4253",
"I  c #4E4258",
"U  c #534953",
"Y  c #534955",
"T  c #534956",
"R  c #544958",
"E  c #544959",
"W  c #54495A",
"Q  c #54495B",
"!  c #55495D",
"~  c #5A4F5E",
"^  c #5A4F5F",
"/  c #595059",
"(  c #5A505D",
")  c #5B4F60",
"_  c #5B4F61",
"`  c #AAB2C4",
"'  c #AEB6C8",
"]  c #B2BACC",
"[  c #B7BFD1",
"{  c #BBC3D5",
"}  c #C1C8DA",
"|  c #C7CFE0",
" . c #CAD2E4",
".. c None",
/* pixels */
"..O O O O O O * * * * O O O O ..",
"O g 6 6 g g B B B B B g g B G O ",
"O > g B B G G G G G U U / G g O ",
"O > B g g g f 5 5 5 > > B / 6 O ",
"O 6 G B B d  . . . .5 6 > U 6 O ",
"O g G B M | | M r | | , > U g O ",
"+ z H H x } } i x } } 1 9 H z = ",
"+ c Y J N l { { { { { y 0 J c - ",
"o b T K K v s s s [ [ e q K b ; ",
"@ n ( R L A L A p ] ] 8 w A n @ ",
"# m ~ E P P u a u ' ' 7 m S h # ",
"$ j ^ W W t ` ` ` ` 8 8 V V j $ ",
"  < ) ) Q t t 0 0 0 2 D C C < $ ",
". 3 I _ _ _ ! ! ! I I I Z F : % ",
". k 4 4 4 k k k k k k 4 4 4 k . ",
"..X X X & & & & & & & & X X X .."
};
