/* XPM */
static char *result[] = {
/* columns rows colors chars-per-pixel */
"16 16 80 1 ",
"  c #422E0E",
". c #403010",
"X c #433314",
"o c #493A1A",
"O c #4F3F1E",
"+ c #533E1D",
"@ c #523F1E",
"# c #543E1C",
"$ c #51401F",
"% c #504020",
"& c #534423",
"* c #584828",
"= c #5C4D2C",
"- c #654E2B",
"; c #61502F",
": c #62502E",
"> c #605030",
", c #775E39",
"< c #765D3A",
"1 c #785D38",
"2 c #706040",
"3 c #8A6C46",
"4 c #866D4A",
"5 c #856E4B",
"6 c #826F4E",
"7 c #846E4C",
"8 c #83704D",
"9 c #807050",
"0 c #847454",
"q c #8A7A5B",
"w c #997D57",
"e c #9A7D56",
"r c #957E5B",
"t c #967E5A",
"y c #927F5E",
"u c #987D58",
"i c #93805D",
"p c #8F8060",
"a c #908060",
"s c #978666",
"d c #988769",
"f c #AA8D66",
"g c #A68E6A",
"h c #A48E6C",
"j c #A09070",
"k c #A89776",
"l c #A9997A",
"z c #AE9B7A",
"x c #AE9D7D",
"c c #B29F7E",
"v c #B89D78",
"b c #B2A07D",
"n c #B3A07F",
"m c #B0A080",
"M c #B2A180",
"N c #B7A483",
"B c #B9A684",
"V c #BCAB8A",
"C c #BFAD8C",
"Z c #C0AC8A",
"A c #C7AE89",
"S c #C5AE8B",
"D c #C3AE8D",
"F c #C2AF8D",
"G c #C1AF8F",
"H c #C4AE8C",
"J c #C2B08E",
"K c #C0B090",
"L c #C6B391",
"P c #C6B392",
"I c #C7B493",
"U c #CAB796",
"Y c #CCB998",
"T c #CEBB9B",
"R c #D5BE9B",
"E c #D3BF9D",
"W c #D2BF9E",
"Q c #D4BE9C",
"! c #D0C0A0",
"~ c None",
/* pixels */
"~%%%%%%>>>>%%%%~",
"%a99aajjjjjaajm%",
"%2ajjmmmmmKK!ma%",
"%2jaaaa00922j!9%",
"%9mjjad..q992K9%",
"%amjjlXXXXp92Ka%",
"%ammxoooooos9ma>",
"$yGcVOOMkOOk6cy;",
"$iJbC&&NN&&z8bi:",
"@rWDJ******n7hr@",
"@tEHL==LZ==Btg5@",
"+4QSY>>II>>Fuu4+",
" <QQTTTUUUPPww<+",
" ,vRRRAAAvvvef-+",
" 31113333331113 ",
"~   ########   ~"
};
