/* XPM */
static char *result[] = {
/* columns rows colors chars-per-pixel */
"16 16 83 1 ",
"  c #422E0E",
". c #403010",
"X c #433314",
"o c #493A1A",
"O c #4F3F1E",
"+ c #533E1D",
"@ c #523F1E",
"# c #543E1C",
"$ c #51401F",
"% c #504020",
"& c #534423",
"* c #584828",
"= c #5C4D2C",
"- c #654E2B",
"; c #61502F",
": c #62502E",
"> c #605030",
", c #775E39",
"< c #765D3A",
"1 c #785D38",
"2 c #706040",
"3 c #8A6C46",
"4 c #866D4A",
"5 c #856E4B",
"6 c #826F4E",
"7 c #846E4C",
"8 c #83704D",
"9 c #807050",
"0 c #847454",
"q c #8A7A5B",
"w c #997D57",
"e c #9A7D56",
"r c #957E5B",
"t c #967E5A",
"y c #927F5E",
"u c #987D58",
"i c #93805D",
"p c #8F8060",
"a c #908060",
"s c #938363",
"d c #978666",
"f c #9C8C6D",
"g c #A98D67",
"h c #AA8D66",
"j c #A68E6A",
"k c #A48E6C",
"l c #A09070",
"z c #A29272",
"x c #A69577",
"c c #A89776",
"v c #A9997A",
"b c #AE9B7A",
"n c #AE9D7D",
"m c #B29F7E",
"M c #B89D78",
"N c #B2A07D",
"B c #B3A07F",
"V c #B0A080",
"C c #B7A483",
"Z c #B9A684",
"A c #BAA887",
"S c #BCAB8A",
"D c #BFAD8C",
"F c #C0AC8A",
"G c #C7AE89",
"H c #C5AE8B",
"J c #C3AE8D",
"K c #C2AF8D",
"L c #C1AF8F",
"P c #C4AE8C",
"I c #C2B08E",
"U c #C0B090",
"Y c #C6B391",
"T c #C6B392",
"R c #CAB796",
"E c #CCB998",
"W c #CEBB9B",
"Q c #D5BE9B",
"! c #D3BF9D",
"~ c #D2BF9E",
"^ c #D4BE9C",
"/ c #D0C0A0",
"( c None",
/* pixels */
"(%%%%%%>>>>%%%%(",
"%a99aalllllaalV%",
"%2allVVVVVUU/Va%",
"%2laass00022l/9%",
"%9Vlx.....q92U9%",
"%aVlvXXvfXXp2Ua%",
"%aVVnooznood9Va>",
"$yLmSOOOOOcc6my;",
"$iIND&&CC&&b8Ni:",
"@r~JI**AA**B7kr@",
"@t!PY==YF==Ztj5@",
"+4^HE>>>>>KKuu4+",
" <^^WWWRRRTgww<+",
" ,MQQQGGGMMMeh-+",
" 31113333331113 ",
"(   ########   ("
};
