/* XPM */
static char *result[] = {
/* columns rows colors chars-per-pixel */
"16 16 77 1 ",
"  c #422E0E",
". c #403010",
"X c #433314",
"o c #493A1A",
"O c #4F3F1E",
"+ c #533E1D",
"@ c #523F1E",
"# c #543E1C",
"$ c #51401F",
"% c #504020",
"& c #534423",
"* c #584828",
"= c #5C4D2C",
"- c #654E2B",
"; c #61502F",
": c #62502E",
"> c #605030",
", c #775E39",
"< c #765D3A",
"1 c #785D38",
"2 c #706040",
"3 c #8A6C46",
"4 c #866D4A",
"5 c #856E4B",
"6 c #826F4E",
"7 c #846E4C",
"8 c #83704D",
"9 c #807050",
"0 c #997D57",
"q c #9A7D56",
"w c #957E5B",
"e c #967E5A",
"r c #927F5E",
"t c #987D58",
"y c #93805D",
"u c #908060",
"i c #938363",
"p c #988769",
"a c #AA8D66",
"s c #A68E6A",
"d c #A28F6E",
"f c #A48E6C",
"g c #A3906D",
"h c #A09070",
"j c #A29272",
"k c #A69577",
"l c #A9997A",
"z c #AE9D7D",
"x c #B29F7E",
"c c #B89D78",
"v c #B2A07D",
"b c #B0A080",
"n c #B2A180",
"m c #B7A483",
"M c #BAA887",
"N c #BCAB8A",
"B c #BFAD8C",
"V c #C0AC8A",
"C c #C7AE89",
"Z c #C5AE8B",
"A c #C3AE8D",
"S c #C2AF8D",
"D c #C1AF8F",
"F c #C4AE8C",
"G c #C2B08E",
"H c #C0B090",
"J c #C6B391",
"K c #C6B392",
"L c #CAB796",
"P c #CCB998",
"I c #CEBB9B",
"U c #D5BE9B",
"Y c #D3BF9D",
"T c #D2BF9E",
"R c #D4BE9C",
"E c #D0C0A0",
"W c None",
/* pixels */
"W%%%%%%>>>>%%%%W",
"%u99uuhhhhhuuhb%",
"%2uhhbbbbbHHEbu%",
"%2huuii99922hE9%",
"%9bhk..pu9992H9%",
"%ubhlXXluu992Hu%",
"%ubbzoojhuu99bu>",
"$rDxNOOnrdrr6xr;",
"$yGvB&&mgygy8vy:",
"@wTAG**Mffww7fw@",
"@eYFJ==JVVVees5@",
"+4RZP>>>>>>Stt4+",
" <RRIIILLLKK00<+",
" ,cUUUCCCcccqa-+",
" 31113333331113 ",
"W   ########   W"
};
