/* XPM */
static char *result[] = {
/* columns rows colors chars-per-pixel */
"16 16 83 1 ",
"  c #422E0E",
". c #403010",
"X c #433314",
"o c #493A1A",
"O c #4F3F1E",
"+ c #533E1D",
"@ c #523F1E",
"# c #543E1C",
"$ c #51401F",
"% c #504020",
"& c #534423",
"* c #584828",
"= c #5C4D2C",
"- c #654E2B",
"; c #61502F",
": c #62502E",
"> c #605030",
", c #775E39",
"< c #765D3A",
"1 c #785D38",
"2 c #706040",
"3 c #756445",
"4 c #8A6C46",
"5 c #866D4A",
"6 c #856E4B",
"7 c #826F4E",
"8 c #846E4C",
"9 c #83704D",
"0 c #807050",
"q c #847454",
"w c #8A7A5B",
"e c #997D57",
"r c #9A7D56",
"t c #957E5B",
"y c #967E5A",
"u c #927F5E",
"i c #987D58",
"p c #93805D",
"a c #8F8060",
"s c #908060",
"d c #938363",
"f c #978666",
"g c #988769",
"h c #9C8C6D",
"j c #AA8D66",
"k c #A68E6A",
"l c #A48E6C",
"z c #A09070",
"x c #A69577",
"c c #A89776",
"v c #A9997A",
"b c #AE9B7A",
"n c #AE9D7D",
"m c #B29F7E",
"M c #B89D78",
"N c #B2A07D",
"B c #B3A07F",
"V c #B0A080",
"C c #B9A684",
"Z c #BAA887",
"A c #BCAB8A",
"S c #BFAD8C",
"D c #C0AC8A",
"F c #C7AE89",
"G c #C5AE8B",
"H c #C3AE8D",
"J c #C2AF8D",
"K c #C1AF8F",
"L c #C4AE8C",
"P c #C2B08E",
"I c #C0B090",
"U c #C6B391",
"Y c #C6B392",
"T c #C7B493",
"R c #CAB796",
"E c #CCB998",
"W c #CEBB9B",
"Q c #D5BE9B",
"! c #D3BF9D",
"~ c #D2BF9E",
"^ c #D4BE9C",
"/ c #D0C0A0",
"( c None",
/* pixels */
"(%%%%%%>>>>%%%%(",
"%s00sszzzzzsszV%",
"%2szzVVVVVII/Vs%",
"%2zssdd00q32z/0%",
"%0Vzx..gg..w2I0%",
"%sVzvXXvhXXa2Is%",
"%sVVnooonoof0Vs>",
"$uKmAOOOOOOc7mu;",
"$pPNS&&&&&&b9Np:",
"@t~HP**Z***B8lt@",
"@y!LU==UD==Cyk6@",
"+5^GE>>TT>>Jii5+",
" <^^WWWRRRYYee<+",
" ,MQQQFFFMMMrj-+",
" 41114444441114 ",
"(   ########   ("
};
