/* XPM */
static char *result[] = {
/* columns rows colors chars-per-pixel */
"16 16 84 1 ",
"  c #422E0E",
". c #403010",
"X c #433314",
"o c #493A1A",
"O c #4F3F1E",
"+ c #533E1D",
"@ c #523F1E",
"# c #543E1C",
"$ c #51401F",
"% c #504020",
"& c #534423",
"* c #584828",
"= c #5C4D2C",
"- c #654E2B",
"; c #61502F",
": c #62502E",
"> c #605030",
", c #775E39",
"< c #765D3A",
"1 c #785D38",
"2 c #706040",
"3 c #8A6C46",
"4 c #866D4A",
"5 c #856E4B",
"6 c #826F4E",
"7 c #846E4C",
"8 c #83704D",
"9 c #807050",
"0 c #847454",
"q c #8A7A5B",
"w c #997D57",
"e c #9A7D56",
"r c #957E5B",
"t c #967E5A",
"y c #927F5E",
"u c #987D58",
"i c #93805D",
"p c #8F8060",
"a c #908060",
"s c #938363",
"d c #978666",
"f c #9C8C6D",
"g c #A98D67",
"h c #AA8D66",
"j c #A78D69",
"k c #A68E6A",
"l c #A48E6C",
"z c #A09070",
"x c #A29272",
"c c #A69577",
"v c #A89776",
"b c #A9997A",
"n c #AE9B7A",
"m c #AE9D7D",
"M c #B79D78",
"N c #B69D7A",
"B c #B29F7E",
"V c #B89D78",
"C c #B2A07D",
"Z c #B3A07F",
"A c #B0A080",
"S c #B2A180",
"D c #B7A483",
"F c #BAA887",
"G c #BCAB8A",
"H c #BFAD8C",
"J c #C7AE89",
"K c #C5AE8B",
"L c #C3AE8D",
"P c #C1AF8F",
"I c #C4AE8C",
"U c #C2B08E",
"Y c #C0B090",
"T c #C6B391",
"R c #C7B493",
"E c #CAB796",
"W c #CCB998",
"Q c #CEBB9B",
"! c #D5BE9B",
"~ c #D3BF9D",
"^ c #D2BF9E",
"/ c #D4BE9C",
"( c #D0C0A0",
") c None",
/* pixels */
")%%%%%%>>>>%%%%)",
"%a99aazzzzzaazA%",
"%2azzAAAAAYY(Aa%",
"%2zaass00022z(9%",
"%9Azc.....q92Y9%",
"%aAzbXXbfXXp2Ya%",
"%aAAmooxmood9Aa>",
"$yPBGOOSvOOv6By;",
"$iUCH&&&&&Dn8Ci:",
"@r^LU**FFFZr7lr@",
"@t~IT==Tkkkttk5@",
"+4/KW>>RNjjjuu4+",
" <//QQQEMMggww<+",
" ,V!!!JJJVVVeh-+",
" 31113333331113 ",
")   ########   )"
};
