/* XPM */
static char *result[] = {
/* columns rows colors chars-per-pixel */
"16 16 83 1 ",
"  c #422E0E",
". c #403010",
"X c #433314",
"o c #493A1A",
"O c #4F3F1E",
"+ c #533E1D",
"@ c #523F1E",
"# c #543E1C",
"$ c #51401F",
"% c #504020",
"& c #534423",
"* c #584828",
"= c #5C4D2C",
"- c #654E2B",
"; c #61502F",
": c #62502E",
"> c #605030",
", c #775E39",
"< c #765D3A",
"1 c #785D38",
"2 c #706040",
"3 c #8A6C46",
"4 c #866D4A",
"5 c #856E4B",
"6 c #826F4E",
"7 c #846E4C",
"8 c #83704D",
"9 c #807050",
"0 c #847454",
"q c #8A7A5B",
"w c #997D57",
"e c #9A7D56",
"r c #957E5B",
"t c #967E5A",
"y c #927F5E",
"u c #987D58",
"i c #93805D",
"p c #8F8060",
"a c #908060",
"s c #938363",
"d c #978666",
"f c #988769",
"g c #9C8C6D",
"h c #AA8D66",
"j c #A68E6A",
"k c #A48E6C",
"l c #A09070",
"z c #A29272",
"x c #A89776",
"c c #A9997A",
"v c #AE9B7A",
"b c #AE9D7D",
"n c #B79D78",
"m c #B29F7E",
"M c #B89D78",
"N c #B2A07D",
"B c #B3A07F",
"V c #B0A080",
"C c #B2A180",
"Z c #B7A483",
"A c #B9A684",
"S c #BAA887",
"D c #BCAB8A",
"F c #BFAD8C",
"G c #C7AE89",
"H c #C6AD8A",
"J c #C5AE8B",
"K c #C3AE8D",
"L c #C2AF8D",
"P c #C1AF8F",
"I c #C4AE8C",
"U c #C2B08E",
"Y c #C0B090",
"T c #C6B391",
"R c #C6B392",
"E c #C7B493",
"W c #CAB796",
"Q c #D5BE9B",
"! c #D3BF9D",
"~ c #D2BF9E",
"^ c #D4BE9C",
"/ c #D0C0A0",
"( c None",
/* pixels */
"(%%%%%%>>>>%%%%(",
"%a99aalllllaalV%",
"%2allVVVVVYY/Va%",
"%2laaas00022l/9%",
"%9Vllf....q92Y9%",
"%aVlcXXcgXXp2Ya%",
"%aVVboozbood9Va>",
"$yPmDOOCxOOx6my;",
"$iUNF&&ZZ&&v8Ni:",
"@r~KU**S**BB7kr@",
"@t!ITT=====Atj5@",
"+4^JJEEEE>>Luu4+",
" <^^HHHnWWRRww<+",
" ,MQQQGGGMMMeh-+",
" 31113333331113 ",
"(   ########   ("
};
