/* XPM */
static char *result[] = {
/* columns rows colors chars-per-pixel */
"16 16 87 1 ",
"  c #422E0E",
". c #403010",
"X c #433314",
"o c #493A1A",
"O c #4F3F1E",
"+ c #533E1D",
"@ c #523F1E",
"# c #543E1C",
"$ c #51401F",
"% c #504020",
"& c #534423",
"* c #584828",
"= c #5C4D2C",
"- c #654E2B",
"; c #61502F",
": c #62502E",
"> c #605030",
", c #775E39",
"< c #765D3A",
"1 c #785D38",
"2 c #706040",
"3 c #8A6C46",
"4 c #866D4A",
"5 c #856E4B",
"6 c #826F4E",
"7 c #846E4C",
"8 c #83704D",
"9 c #807050",
"0 c #847454",
"q c #8A7A5B",
"w c #997D57",
"e c #9A7D56",
"r c #957E5B",
"t c #967E5A",
"y c #927F5E",
"u c #987D58",
"i c #93805D",
"p c #8F8060",
"a c #908060",
"s c #938363",
"d c #978666",
"f c #988769",
"g c #9C8C6D",
"h c #A98D67",
"j c #AA8D66",
"k c #A68E6A",
"l c #A48E6C",
"z c #A09070",
"x c #A29272",
"c c #A89776",
"v c #A9997A",
"b c #AE9B7A",
"n c #AE9D7D",
"m c #B29F7E",
"M c #B49E7C",
"N c #B89D78",
"B c #B2A07D",
"V c #B3A07F",
"C c #B0A080",
"Z c #B2A180",
"A c #B7A483",
"S c #B9A684",
"D c #BAA887",
"F c #BCAB8A",
"G c #BFAD8C",
"H c #C0AC8A",
"J c #C7AE89",
"K c #C6AD8A",
"L c #C5AE8B",
"P c #C3AE8D",
"I c #C2AF8D",
"U c #C1AF8F",
"Y c #C4AE8C",
"T c #C2B08E",
"R c #C0B090",
"E c #C6B391",
"W c #C6B392",
"Q c #C7B493",
"! c #CAB796",
"~ c #CCB998",
"^ c #CEBB9B",
"/ c #D5BE9B",
"( c #D3BF9D",
") c #D2BF9E",
"_ c #D4BE9C",
"` c #D0C0A0",
"' c None",
/* pixels */
"'%%%%%%>>>>%%%%'",
"%a99aazzzzzaazC%",
"%2azzCCCCCRR`Ca%",
"%2zaaas00022z`9%",
"%9Czzf....q92R9%",
"%aCzvXXvgXXp2Ra%",
"%aCCnooxnxxd9Ca>",
"$yUmFZOOOOcy6my;",
"$iTBBGAAA&&b8Bi:",
"@r)PMDTlD**V7lr@",
"@t(YE==EH==Stk5@",
"+4_L~Q>>>>IIuu4+",
" <__K^^!!!Whww<+",
" ,N///JJJNNNej-+",
" 31113333331113 ",
"'   ########   '"
};
