/* XPM */
static char *result[] = {
/* columns rows colors chars-per-pixel */
"16 16 84 1 ",
"  c #422E0E",
". c #403010",
"X c #433314",
"o c #493A1A",
"O c #4F3F1E",
"+ c #533E1D",
"@ c #523F1E",
"# c #543E1C",
"$ c #51401F",
"% c #504020",
"& c #534423",
"* c #584828",
"= c #5C4D2C",
"- c #654E2B",
"; c #61502F",
": c #62502E",
"> c #605030",
", c #775E39",
"< c #765D3A",
"1 c #785D38",
"2 c #706040",
"3 c #756445",
"4 c #8A6C46",
"5 c #866D4A",
"6 c #856E4B",
"7 c #826F4E",
"8 c #846E4C",
"9 c #83704D",
"0 c #807050",
"q c #847454",
"w c #8A7A5B",
"e c #997D57",
"r c #9A7D56",
"t c #957E5B",
"y c #967E5A",
"u c #927F5E",
"i c #987D58",
"p c #93805D",
"a c #8F8060",
"s c #908060",
"d c #938363",
"f c #9C8C6D",
"g c #A98D67",
"h c #AA8D66",
"j c #A78D69",
"k c #A68E6A",
"l c #A28F6E",
"z c #A48E6C",
"x c #A3906D",
"c c #A09070",
"v c #A29272",
"b c #A69577",
"n c #A9997A",
"m c #AE9B7A",
"M c #AE9D7D",
"N c #B69D7A",
"B c #B59E7B",
"V c #B29F7E",
"C c #B49E7C",
"Z c #B89D78",
"A c #B2A07D",
"S c #B0A080",
"D c #B2A180",
"F c #B7A483",
"G c #BAA887",
"H c #C0AC8A",
"J c #C7AE89",
"K c #C6AD8A",
"L c #C5AE8B",
"P c #C3AE8D",
"I c #C2AF8D",
"U c #C1AF8F",
"Y c #C4AE8C",
"T c #C2B08E",
"R c #C0B090",
"E c #C7B493",
"W c #CAB796",
"Q c #CEBB9B",
"! c #D5BE9B",
"~ c #D3BF9D",
"^ c #D2BF9E",
"/ c #D4BE9C",
"( c #D0C0A0",
") c None",
/* pixels */
")%%%%%%>>>>%%%%)",
"%s00sscccccsscS%",
"%2sccSSSSSRR(Ss%",
"%2cssddqqq32c(0%",
"%0Scb......w2R0%",
"%sScnnfXXfaa2Rs%",
"%sSSccMoovs00Ss>",
"$uUVVlDOODuu7Vu;",
"$pTAAAF&&mxp9Ap:",
"@t^PCzT**Gtt8zt@",
"@y~YBBH==Hkyyk6@",
"+5/LLNE>>Ijjii5+",
" <//KKQWWWggee<+",
" ,Z!!!JJJZZZrh-+",
" 41114444441114 ",
")   ########   )"
};
