/* XPM */
static char *result[] = {
/* columns rows colors chars-per-pixel */
"16 16 86 1 ",
"  c #422E0E",
". c #403010",
"X c #433314",
"o c #493A1A",
"O c #4F3F1E",
"+ c #533E1D",
"@ c #523F1E",
"# c #543E1C",
"$ c #51401F",
"% c #504020",
"& c #534423",
"* c #584828",
"= c #5C4D2C",
"- c #654E2B",
"; c #61502F",
": c #62502E",
"> c #605030",
", c #775E39",
"< c #765D3A",
"1 c #785D38",
"2 c #706040",
"3 c #756445",
"4 c #8A6C46",
"5 c #866D4A",
"6 c #856E4B",
"7 c #826F4E",
"8 c #846E4C",
"9 c #83704D",
"0 c #807050",
"q c #847454",
"w c #8A7A5B",
"e c #997D57",
"r c #9A7D56",
"t c #957E5B",
"y c #967E5A",
"u c #927F5E",
"i c #987D58",
"p c #93805D",
"a c #8F8060",
"s c #908060",
"d c #938363",
"f c #978666",
"g c #988769",
"h c #9C8C6D",
"j c #AA8D66",
"k c #A68E6A",
"l c #A28F6E",
"z c #A48E6C",
"x c #A3906D",
"c c #A09070",
"v c #A29272",
"b c #A9997A",
"n c #AE9D7D",
"m c #B29F7E",
"M c #B89D78",
"N c #B2A07D",
"B c #B3A07F",
"V c #B0A080",
"C c #B2A180",
"Z c #B7A483",
"A c #B9A684",
"S c #BAA887",
"D c #BCAB8A",
"F c #BFAD8C",
"G c #C0AC8A",
"H c #C7AE89",
"J c #C6AD8A",
"K c #C5AE8B",
"L c #C3AE8D",
"P c #C2AF8D",
"I c #C1AF8F",
"U c #C4AE8C",
"Y c #C2B08E",
"T c #C0B090",
"R c #C6B391",
"E c #C6B392",
"W c #C7B493",
"Q c #CAB796",
"! c #CCB998",
"~ c #CEBB9B",
"^ c #D5BE9B",
"/ c #D3BF9D",
"( c #D2BF9E",
") c #D4BE9C",
"_ c #D0C0A0",
"` c None",
/* pixels */
"`%%%%%%>>>>%%%%`",
"%s00sscccccsscV%",
"%2sccVVVVVTT_Vs%",
"%2csssdqqq32c_0%",
"%0Vccg.....w2T0%",
"%sVcbXXbhXXa2Ts%",
"%sVVnoovnvvf0Vs>",
"$uImDOOCuluu7mu;",
"$pYNF&&Zxpxp9Np:",
"@t(LY**SzSBt8zt@",
"@y/UR==RG==Ayk6@",
"+5)K!W>>>>>Pii5+",
" <))J~~QQQEEee<+",
" ,M^^^HHHMMMrj-+",
" 41114444441114 ",
"`   ########   `"
};
