/* XPM */
static char *result[] = {
/* columns rows colors chars-per-pixel */
"16 16 88 1 ",
"  c #422E0E",
". c #403010",
"X c #433314",
"o c #493A1A",
"O c #4F3F1E",
"+ c #533E1D",
"@ c #523F1E",
"# c #543E1C",
"$ c #51401F",
"% c #504020",
"& c #534423",
"* c #584828",
"= c #5C4D2C",
"- c #654E2B",
"; c #61502F",
": c #62502E",
"> c #605030",
", c #775E39",
"< c #765D3A",
"1 c #785D38",
"2 c #706040",
"3 c #756445",
"4 c #8A6C46",
"5 c #866D4A",
"6 c #856E4B",
"7 c #826F4E",
"8 c #846E4C",
"9 c #83704D",
"0 c #807050",
"q c #847454",
"w c #8A7A5B",
"e c #997D57",
"r c #9A7D56",
"t c #957E5B",
"y c #967E5A",
"u c #927F5E",
"i c #987D58",
"p c #93805D",
"a c #8F8060",
"s c #908060",
"d c #938363",
"f c #978666",
"g c #988769",
"h c #9C8C6D",
"j c #A98D67",
"k c #AA8D66",
"l c #A68E6A",
"z c #A48E6C",
"x c #A09070",
"c c #A29272",
"v c #A69577",
"b c #A89776",
"n c #A9997A",
"m c #AE9B7A",
"M c #AE9D7D",
"N c #B29F7E",
"B c #B89D78",
"V c #B2A07D",
"C c #B3A07F",
"Z c #B0A080",
"A c #B2A180",
"S c #B7A483",
"D c #B9A684",
"F c #BAA887",
"G c #BCAB8A",
"H c #BFAD8C",
"J c #C0AC8A",
"K c #C7AE89",
"L c #C6AD8A",
"P c #C5AE8B",
"I c #C3AE8D",
"U c #C2AF8D",
"Y c #C1AF8F",
"T c #C4AE8C",
"R c #C2B08E",
"E c #C0B090",
"W c #C6B391",
"Q c #C6B392",
"! c #C7B493",
"~ c #CAB796",
"^ c #CCB998",
"/ c #CEBB9B",
"( c #D5BE9B",
") c #D3BF9D",
"_ c #D2BF9E",
"` c #D4BE9C",
"' c #D0C0A0",
"] c None",
/* pixels */
"]%%%%%%>>>>%%%%]",
"%s00ssxxxxxssxZ%",
"%2sxxZZZZZEE'Zs%",
"%2xssdd00q32x'0%",
"%0Zxv..gg..w2E0%",
"%sZxnXXnhXXa2Es%",
"%sZZMoocMoof0Zs>",
"$uYNGOOAbOOb7Nu;",
"$pRVH&&SS&&m9Vp:",
"@t_IR**FF**C8zt@",
"@y)TW==WJ==Dyl6@",
"+5`P^!>>>>UUii5+",
" <``L//~~~Qjee<+",
" ,B(((KKKBBBrk-+",
" 41114444441114 ",
"]   ########   ]"
};
