/* XPM */
static char *result[] = {
/* columns rows colors chars-per-pixel */
"16 16 87 1 ",
"  c #422E0E",
". c #403010",
"X c #433314",
"o c #493A1A",
"O c #4F3F1E",
"+ c #533E1D",
"@ c #523F1E",
"# c #543E1C",
"$ c #51401F",
"% c #504020",
"& c #534423",
"* c #584828",
"= c #5C4D2C",
"- c #654E2B",
"; c #61502F",
": c #62502E",
"> c #605030",
", c #775E39",
"< c #765D3A",
"1 c #785D38",
"2 c #706040",
"3 c #756445",
"4 c #8A6C46",
"5 c #866D4A",
"6 c #856E4B",
"7 c #826F4E",
"8 c #846E4C",
"9 c #83704D",
"0 c #807050",
"q c #847454",
"w c #8A7A5B",
"e c #997D57",
"r c #9A7D56",
"t c #957E5B",
"y c #967E5A",
"u c #927F5E",
"i c #987D58",
"p c #93805D",
"a c #8F8060",
"s c #908060",
"d c #938363",
"f c #978666",
"g c #988769",
"h c #9C8C6D",
"j c #A98D67",
"k c #AA8D66",
"l c #A78D69",
"z c #A68E6A",
"x c #A48E6C",
"c c #A09070",
"v c #A29272",
"b c #A69577",
"n c #A89776",
"m c #A9997A",
"M c #AE9B7A",
"N c #AE9D7D",
"B c #B69D7A",
"V c #B59E7B",
"C c #B29F7E",
"Z c #B89D78",
"A c #B2A07D",
"S c #B3A07F",
"D c #B0A080",
"F c #B2A180",
"G c #BAA887",
"H c #BCAB8A",
"J c #BFAD8C",
"K c #C0AC8A",
"L c #C7AE89",
"P c #C6AD8A",
"I c #C5AE8B",
"U c #C3AE8D",
"Y c #C2AF8D",
"T c #C1AF8F",
"R c #C4AE8C",
"E c #C2B08E",
"W c #C0B090",
"Q c #C6B391",
"! c #C7B493",
"~ c #CAB796",
"^ c #CEBB9B",
"/ c #D5BE9B",
"( c #D3BF9D",
") c #D2BF9E",
"_ c #D4BE9C",
"` c #D0C0A0",
"' c None",
/* pixels */
"'%%%%%%>>>>%%%%'",
"%s00sscccccsscD%",
"%2sccDDDDDWW`Ds%",
"%2cssdd00q32c`0%",
"%0Dcb..gg..w2W0%",
"%sDcmXXmhXXa2Ws%",
"%sDDNoovNoof0Ds>",
"$uTCHOOFnOOn7Cu;",
"$pEAJ&&&&&&M9Ap:",
"@t)UEG****SS8xt@",
"@y(RVQK==KKyyz6@",
"+5_IIB!>>Yllii5+",
" <__PP^~~~jjee<+",
" ,Z///LLLZZZrk-+",
" 41114444441114 ",
"'   ########   '"
};
