/* XPM */
static char *result[] = {
/* columns rows colors chars-per-pixel */
"16 16 82 1 ",
"  c #422E0E",
". c #403010",
"X c #433314",
"o c #493A1A",
"O c #4F3F1E",
"+ c #533E1D",
"@ c #523F1E",
"# c #543E1C",
"$ c #51401F",
"% c #504020",
"& c #534423",
"* c #584828",
"= c #5C4D2C",
"- c #654E2B",
"; c #61502F",
": c #62502E",
"> c #605030",
", c #775E39",
"< c #765D3A",
"1 c #785D38",
"2 c #706040",
"3 c #756445",
"4 c #7D6C4D",
"5 c #8A6C46",
"6 c #866D4A",
"7 c #856E4B",
"8 c #807050",
"9 c #837354",
"0 c #8A7A5B",
"q c #997D57",
"w c #9A7D56",
"e c #957E5B",
"r c #967E5A",
"t c #927F5E",
"y c #987D58",
"u c #93805D",
"i c #908060",
"p c #938363",
"a c #978666",
"s c #988769",
"d c #9C8C6D",
"f c #9E8D6C",
"g c #AA8D66",
"h c #A68E6A",
"j c #A48E6C",
"k c #A09070",
"l c #A29272",
"z c #A59271",
"x c #A69577",
"c c #AB9977",
"v c #A9997A",
"b c #AE9D7D",
"n c #B29F7E",
"m c #B89D78",
"M c #B2A07D",
"N c #B0A080",
"B c #B9A684",
"V c #BAA887",
"C c #B9A989",
"Z c #BCAB8A",
"A c #BFAD8C",
"S c #C0AC8A",
"D c #C7AE89",
"F c #C5AE8B",
"G c #C2AF8D",
"H c #C1AF8F",
"J c #C2B08E",
"K c #C0B090",
"L c #C6B391",
"P c #C6B392",
"I c #C7B493",
"U c #C9B796",
"Y c #CAB796",
"T c #CCB997",
"R c #CCB998",
"E c #CEBB9B",
"W c #D5BE9B",
"Q c #D3BF9D",
"! c #D2BF9E",
"~ c #D4BE9C",
"^ c #D0C0A0",
"/ c None",
/* pixels */
"/%%%%%%>>>>%%%%/",
"%i88iikkkkkiikN%",
"%2ikkNNNNNKK^Ni%",
"%2kippi88833k^8%",
"%8Nx..sss0..4K8%",
"%iNvXXdXXdXX9Ki%",
"%iNCooboolooaNi>",
"$tHZOOOOOOOOfnt;",
"$uJA&&&&&&&&zMu:",
"@e!U***VV***cje@",
"@rQTL==LS==BBh7@",
"+6~FR>>II>>Gyy6+",
" <~~EEEYYYPPqq<+",
" ,mWWWDDDmmmwg-+",
" 51115555551115 ",
"/   ########   /"
};
