/* XPM */
static char *result[] = {
/* columns rows colors chars-per-pixel */
"16 16 85 1 ",
"  c #422E0E",
". c #403010",
"X c #433314",
"o c #493A1A",
"O c #4F3F1E",
"+ c #533E1D",
"@ c #523F1E",
"# c #543E1C",
"$ c #51401F",
"% c #504020",
"& c #534423",
"* c #584828",
"= c #5C4D2C",
"- c #654E2B",
"; c #61502F",
": c #62502E",
"> c #605030",
", c #775E39",
"< c #765D3A",
"1 c #785D38",
"2 c #706040",
"3 c #756445",
"4 c #8A6C46",
"5 c #866D4A",
"6 c #856E4B",
"7 c #826F4E",
"8 c #846E4C",
"9 c #83704D",
"0 c #807050",
"q c #847454",
"w c #8A7A5B",
"e c #997D57",
"r c #9A7D56",
"t c #957E5B",
"y c #967E5A",
"u c #927F5E",
"i c #987D58",
"p c #93805D",
"a c #8F8060",
"s c #908060",
"d c #938363",
"f c #978666",
"g c #988769",
"h c #9C8C6D",
"j c #AA8D66",
"k c #A68E6A",
"l c #A48E6C",
"z c #A09070",
"x c #A29272",
"c c #A69577",
"v c #A89776",
"b c #A9997A",
"n c #AE9D7D",
"m c #B29F7E",
"M c #B89D78",
"N c #B2A07D",
"B c #B3A07F",
"V c #B0A080",
"C c #B2A180",
"Z c #B7A483",
"A c #B9A684",
"S c #BAA887",
"D c #BCAB8A",
"F c #BFAD8C",
"G c #C0AC8A",
"H c #C7AE89",
"J c #C5AE8B",
"K c #C3AE8D",
"L c #C2AF8D",
"P c #C1AF8F",
"I c #C4AE8C",
"U c #C2B08E",
"Y c #C0B090",
"T c #C6B391",
"R c #C6B392",
"E c #C7B493",
"W c #CAB796",
"Q c #CCB998",
"! c #CEBB9B",
"~ c #D5BE9B",
"^ c #D3BF9D",
"/ c #D2BF9E",
"( c #D4BE9C",
") c #D0C0A0",
"_ c None",
/* pixels */
"_%%%%%%>>>>%%%%_",
"%s00sszzzzzsszV%",
"%2szzVVVVVYY)Vs%",
"%2zssdd00q32z)0%",
"%0Vzc..gg..w2Y0%",
"%sVzbXXbhXXa2Ys%",
"%sVVnooxnoof0Vs>",
"$uPmDCOOOOvv7mu;",
"$pUNNF&&&&Zp9Np:",
"@t/KU**SS**B8lt@",
"@y^IT==TG==Ayk6@",
"+5(JQ>>EE>>Lii5+",
" <((!!!WWWRRee<+",
" ,M~~~HHHMMMrj-+",
" 41114444441114 ",
"_   ########   _"
};
