/* XPM */
static char *result[] = {
/* columns rows colors chars-per-pixel */
"16 16 83 1 ",
"  c #422E0E",
". c #403010",
"X c #433314",
"o c #493A1A",
"O c #4F3F1E",
"+ c #533E1D",
"@ c #523F1E",
"# c #543E1C",
"$ c #51401F",
"% c #504020",
"& c #534423",
"* c #584828",
"= c #5C4D2C",
"- c #654E2B",
"; c #61502F",
": c #62502E",
"> c #605030",
", c #775E39",
"< c #765D3A",
"1 c #785D38",
"2 c #706040",
"3 c #756445",
"4 c #8A6C46",
"5 c #866D4A",
"6 c #856E4B",
"7 c #826F4E",
"8 c #846E4C",
"9 c #83704D",
"0 c #807050",
"q c #847454",
"w c #8A7A5B",
"e c #997D57",
"r c #9A7D56",
"t c #957E5B",
"y c #967E5A",
"u c #927F5E",
"i c #987D58",
"p c #93805D",
"a c #8F8060",
"s c #908060",
"d c #938363",
"f c #978666",
"g c #AA8D66",
"h c #A68E6A",
"j c #A28F6E",
"k c #A48E6C",
"l c #A3906D",
"z c #A09070",
"x c #A29272",
"c c #A69577",
"v c #A89776",
"b c #A9997A",
"n c #AE9B7A",
"m c #AE9D7D",
"M c #B29F7E",
"N c #B89D78",
"B c #B2A07D",
"V c #B3A07F",
"C c #B0A080",
"Z c #B2A180",
"A c #B7A483",
"S c #B9A684",
"D c #BAA887",
"F c #BFAD8C",
"G c #C7AE89",
"H c #C5AE8B",
"J c #C3AE8D",
"K c #C2AF8D",
"L c #C1AF8F",
"P c #C4AE8C",
"I c #C2B08E",
"U c #C0B090",
"Y c #C6B391",
"T c #C6B392",
"R c #CAB796",
"E c #CCB998",
"W c #CEBB9B",
"Q c #D5BE9B",
"! c #D3BF9D",
"~ c #D2BF9E",
"^ c #D4BE9C",
"/ c #D0C0A0",
"( c None",
/* pixels */
"(%%%%%%>>>>%%%%(",
"%s00sszzzzzsszC%",
"%2szzCCCCCUU/Cs%",
"%2zssddqqq32z/0%",
"%0Czc......w2U0%",
"%sCzbXXXXXXa2Us%",
"%sCCmmmxooxf0Cs>",
"$uLMMjZOOZvu7Mu;",
"$pIBBF&&Anlp9Bp:",
"@t~JI**DDDVt8kt@",
"@y!PY======Syh6@",
"+5^HE>>>>>>Kii5+",
" <^^WWWRRRTTee<+",
" ,NQQQGGGNNNrg-+",
" 41114444441114 ",
"(   ########   ("
};
