/* XPM */
static char *result[] = {
/* columns rows colors chars-per-pixel */
"16 16 80 1 ",
"  c #422E0E",
". c #403010",
"X c #433314",
"o c #493A1A",
"O c #4F3F1E",
"+ c #533E1D",
"@ c #523F1E",
"# c #543E1C",
"$ c #51401F",
"% c #504020",
"& c #534423",
"* c #584828",
"= c #5C4D2C",
"- c #654E2B",
"; c #61502F",
": c #62502E",
"> c #605030",
", c #775E39",
"< c #765D3A",
"1 c #785D38",
"2 c #706040",
"3 c #756445",
"4 c #8A6C46",
"5 c #866D4A",
"6 c #856E4B",
"7 c #826F4E",
"8 c #846E4C",
"9 c #83704D",
"0 c #807050",
"q c #847454",
"w c #8A7A5B",
"e c #997D57",
"r c #9A7D56",
"t c #957E5B",
"y c #967E5A",
"u c #927F5E",
"i c #987D58",
"p c #93805D",
"a c #8F8060",
"s c #908060",
"d c #938363",
"f c #9C8C6D",
"g c #AA8D66",
"h c #A68E6A",
"j c #A48E6C",
"k c #A09070",
"l c #A29272",
"z c #A69577",
"x c #A89776",
"c c #A9997A",
"v c #AE9B7A",
"b c #AE9D7D",
"n c #B29F7E",
"m c #B89D78",
"M c #B2A07D",
"N c #B0A080",
"B c #B7A483",
"V c #BAA887",
"C c #BCAB8A",
"Z c #BFAD8C",
"A c #C0AC8A",
"S c #C7AE89",
"D c #C5AE8B",
"F c #C3AE8D",
"G c #C2AF8D",
"H c #C1AF8F",
"J c #C4AE8C",
"K c #C2B08E",
"L c #C0B090",
"P c #C6B391",
"I c #C6B392",
"U c #CAB796",
"Y c #CCB998",
"T c #CEBB9B",
"R c #D5BE9B",
"E c #D3BF9D",
"W c #D2BF9E",
"Q c #D4BE9C",
"! c #D0C0A0",
"~ c None",
/* pixels */
"~%%%%%%>>>>%%%%~",
"%s00sskkkkksskN%",
"%2skkNNNNNLL!Ns%",
"%2kssddqqq32k!0%",
"%0Nkz......w2L0%",
"%sNkcXXcffaa2Ls%",
"%sNNboolbls00Ns>",
"$uHnCOOOOOxu7nu;",
"$pKMZ&&BBvBp9Mp:",
"@tWFK**Vjjtt8jt@",
"@yEJP==PAAAyyh6@",
"+5QDY>>>>>>Gii5+",
" <QQTTTUUUIIee<+",
" ,mRRRSSSmmmrg-+",
" 41114444441114 ",
"~   ########   ~"
};
