/* XPM */
static char *result[] = {
/* columns rows colors chars-per-pixel */
"16 16 82 1 ",
"  c #422E0E",
". c #403010",
"X c #433314",
"o c #493A1A",
"O c #4F3F1E",
"+ c #533E1D",
"@ c #523F1E",
"# c #543E1C",
"$ c #51401F",
"% c #504020",
"& c #534423",
"* c #584828",
"= c #5C4D2C",
"- c #654E2B",
"; c #61502F",
": c #62502E",
"> c #605030",
", c #775E39",
"< c #765D3A",
"1 c #785D38",
"2 c #706040",
"3 c #756445",
"4 c #8A6C46",
"5 c #866D4A",
"6 c #856E4B",
"7 c #826F4E",
"8 c #846E4C",
"9 c #83704D",
"0 c #807050",
"q c #847454",
"w c #8A7A5B",
"e c #997D57",
"r c #9A7D56",
"t c #957E5B",
"y c #967E5A",
"u c #927F5E",
"i c #987D58",
"p c #93805D",
"a c #8F8060",
"s c #908060",
"d c #938363",
"f c #9C8C6D",
"g c #A98D67",
"h c #AA8D66",
"j c #A78D69",
"k c #A68E6A",
"l c #A48E6C",
"z c #A09070",
"x c #A29272",
"c c #A69577",
"v c #A89776",
"b c #A9997A",
"n c #AE9B7A",
"m c #AE9D7D",
"M c #B79D78",
"N c #B69D7A",
"B c #B29F7E",
"V c #B89D78",
"C c #B2A07D",
"Z c #B0A080",
"A c #B7A483",
"S c #BAA887",
"D c #BCAB8A",
"F c #BFAD8C",
"G c #C7AE89",
"H c #C5AE8B",
"J c #C3AE8D",
"K c #C1AF8F",
"L c #C4AE8C",
"P c #C2B08E",
"I c #C0B090",
"U c #C6B391",
"Y c #C7B493",
"T c #CAB796",
"R c #CCB998",
"E c #CEBB9B",
"W c #D5BE9B",
"Q c #D3BF9D",
"! c #D2BF9E",
"~ c #D4BE9C",
"^ c #D0C0A0",
"/ c None",
/* pixels */
"/%%%%%%>>>>%%%%/",
"%s00sszzzzzsszZ%",
"%2szzZZZZZII^Zs%",
"%2zssddqqq32z^0%",
"%0Zzc......w2I0%",
"%sZzbXXbffaa2Is%",
"%sZZmooxmxs00Zs>",
"$uKBDOOOOOvu7Bu;",
"$pPCF&&AAnAp9Cp:",
"@t!JP**Slltt8lt@",
"@yQLU==Ukkkyyk6@",
"+5~HR>>YNjjjii5+",
" <~~EEETMMggee<+",
" ,VWWWGGGVVVrh-+",
" 41114444441114 ",
"/   ########   /"
};
