/* XPM */
static char *result[] = {
/* columns rows colors chars-per-pixel */
"16 16 80 1 ",
"  c #422E0E",
". c #403010",
"X c #433314",
"o c #493A1A",
"O c #4F3F1E",
"+ c #533E1D",
"@ c #523F1E",
"# c #543E1C",
"$ c #51401F",
"% c #504020",
"& c #534423",
"* c #584828",
"= c #5C4D2C",
"- c #654E2B",
"; c #61502F",
": c #62502E",
"> c #605030",
", c #775E39",
"< c #765D3A",
"1 c #785D38",
"2 c #706040",
"3 c #8A6C46",
"4 c #866D4A",
"5 c #856E4B",
"6 c #826F4E",
"7 c #846E4C",
"8 c #83704D",
"9 c #807050",
"0 c #847454",
"q c #8A7A5B",
"w c #997D57",
"e c #9A7D56",
"r c #957E5B",
"t c #967E5A",
"y c #927F5E",
"u c #987D58",
"i c #93805D",
"p c #908060",
"a c #988769",
"s c #9C8C6D",
"d c #A98D67",
"f c #AA8D66",
"g c #A78D69",
"h c #A68E6A",
"j c #A28F6E",
"k c #A48E6C",
"l c #A3906D",
"z c #A09070",
"x c #A29272",
"c c #AE9B7A",
"v c #AE9D7D",
"b c #B69D7A",
"n c #B59E7B",
"m c #B29F7E",
"M c #B49E7C",
"N c #B89D78",
"B c #B2A07D",
"V c #B0A080",
"C c #B2A180",
"Z c #B7A483",
"A c #BAA887",
"S c #C0AC8A",
"D c #C7AE89",
"F c #C6AD8A",
"G c #C5AE8B",
"H c #C3AE8D",
"J c #C2AF8D",
"K c #C1AF8F",
"L c #C4AE8C",
"P c #C2B08E",
"I c #C0B090",
"U c #C7B493",
"Y c #CAB796",
"T c #CEBB9B",
"R c #D5BE9B",
"E c #D3BF9D",
"W c #D2BF9E",
"Q c #D4BE9C",
"! c #D0C0A0",
"~ c None",
/* pixels */
"~%%%%%%>>>>%%%%~",
"%p99ppzzzzzppzV%",
"%2pzzVVVVVII!Vp%",
"%2zpppp00922z!9%",
"%9Vzzpa..q992I9%",
"%pVzzzsXXs992Ip%",
"%pVVzzvooxp99Vp>",
"$yKmmjCOOCyy6my;",
"$iPBBBZ&&cli8Bi:",
"@rWHMkP**Arr7kr@",
"@tELnnS==Shtth5@",
"+4QGGbU>>Jgguu4+",
" <QQFFTYYYddww<+",
" ,NRRRDDDNNNef-+",
" 31113333331113 ",
"~   ########   ~"
};
