/* XPM */
static char *result[] = {
/* columns rows colors chars-per-pixel */
"16 16 78 1 ",
"  c #422E0E",
". c #403010",
"X c #433314",
"o c #493A1A",
"O c #4F3F1E",
"+ c #533E1D",
"@ c #523F1E",
"# c #543E1C",
"$ c #51401F",
"% c #504020",
"& c #534423",
"* c #584828",
"= c #5C4D2C",
"- c #654E2B",
"; c #61502F",
": c #62502E",
"> c #605030",
", c #775E39",
"< c #765D3A",
"1 c #785D38",
"2 c #706040",
"3 c #8A6C46",
"4 c #866D4A",
"5 c #856E4B",
"6 c #826F4E",
"7 c #846E4C",
"8 c #83704D",
"9 c #807050",
"0 c #847454",
"q c #8A7A5B",
"w c #997D57",
"e c #9A7D56",
"r c #957E5B",
"t c #967E5A",
"y c #927F5E",
"u c #987D58",
"i c #93805D",
"p c #8F8060",
"a c #908060",
"s c #988769",
"d c #A98D67",
"f c #AA8D66",
"g c #A78D69",
"h c #A68E6A",
"j c #A28F6E",
"k c #A48E6C",
"l c #A3906D",
"z c #A09070",
"x c #A29272",
"c c #A89776",
"v c #A9997A",
"b c #B29F7E",
"n c #B89D78",
"m c #B2A07D",
"M c #B3A07F",
"N c #B0A080",
"B c #B2A180",
"V c #B7A483",
"C c #BAA887",
"Z c #BFAD8C",
"A c #C0AC8A",
"S c #C7AE89",
"D c #C2AF8D",
"F c #C1AF8F",
"G c #C2B08E",
"H c #C0B090",
"J c #C6B391",
"K c #C9B796",
"L c #CAB796",
"P c #CCB997",
"I c #CCB998",
"U c #CEBB9B",
"Y c #D5BE9B",
"T c #D3BF9D",
"R c #D2BF9E",
"E c #D4BE9C",
"W c #D0C0A0",
"Q c None",
/* pixels */
"Q%%%%%%>>>>%%%%Q",
"%a99aazzzzzaazN%",
"%2azzNNNNNHHWNa%",
"%2zaaaa90022zW9%",
"%9Nzzaas..q92H9%",
"%aNzzzavXXp92Ha%",
"%aNNzzzxoox99Na>",
"$yFbbjjBOOcy6by;",
"$iGmZZlV&&Vi8mi:",
"@rRK**GC**Mr7kr@",
"@tTP==AJ==Atth5@",
"+4EII>>>>DDguu4+",
" <EEUUULLLddww<+",
" ,nYYYSSSnnnef-+",
" 31113333331113 ",
"Q   ########   Q"
};
